<?xml version="1.0" standalone="no"?>
<!DOCTYPE svg PUBLIC "-//W3C//DTD SVG 20010904//EN"
 "http://www.w3.org/TR/2001/REC-SVG-20010904/DTD/svg10.dtd">
<svg version="1.0" xmlns="http://www.w3.org/2000/svg"
 width="500.000000pt" height="500.000000pt" viewBox="0 0 500.000000 500.000000"
 preserveAspectRatio="xMidYMid meet">
<metadata>
Created by potrace 1.14, written by Peter Selinger 2001-2017
</metadata>
<g transform="translate(0.000000,500.000000) scale(0.100000,-0.100000)"
fill="#000000" stroke="none">
<path d="M0 2500 l0 -2500 2500 0 2500 0 0 2500 0 2500 -2500 0 -2500 0 0
-2500z m1391 1951 c35 -10 100 -37 145 -59 l81 -41 886 -1 886 -1 79 40 c129
65 195 84 297 85 69 0 107 -5 163 -23 134 -44 266 -150 317 -255 26 -53 197
-641 334 -1146 170 -629 167 -612 132 -748 -29 -110 -65 -175 -139 -250 -212
-213 -522 -217 -741 -8 -89 85 -120 138 -238 401 l-102 230 -105 12 c-114 14
-196 42 -268 91 -57 39 -138 126 -172 185 l-28 47 -413 0 -413 0 -47 -69 c-52
-80 -123 -147 -198 -190 -68 -38 -111 -50 -230 -64 l-98 -12 -70 -155 c-144
-321 -197 -410 -288 -493 -300 -269 -764 -120 -866 278 -23 90 -19 168 16 301
102 399 349 1280 415 1486 24 75 47 124 77 165 79 106 216 190 357 217 44 8
165 -4 231 -23z m710 -2807 c19 -11 43 -37 54 -59 19 -38 20 -60 20 -555 0
-495 -1 -517 -20 -555 -25 -50 -72 -81 -135 -90 -113 -16 -198 17 -235 90 -19
38 -20 60 -20 540 0 551 2 578 57 616 44 32 76 39 164 36 58 -2 90 -9 115 -23z
m-816 -256 c-4 -150 -8 -291 -9 -313 -1 -29 3 -40 14 -40 11 0 26 38 53 130
20 72 63 212 94 313 l56 182 54 0 c29 0 53 -3 53 -7 0 -4 -41 -132 -92 -284
l-92 -276 102 -344 c57 -189 102 -347 102 -351 0 -5 -22 -8 -48 -8 l-49 0 -76
263 c-42 144 -79 275 -83 290 -8 36 -12 32 -46 -56 -28 -71 -28 -75 -28 -284
l0 -213 -50 0 -50 0 0 635 0 635 52 0 51 0 -8 -272z m1395 247 c19 -12 43 -36
55 -55 19 -34 20 -53 23 -535 2 -440 1 -505 -13 -542 -33 -86 -99 -113 -280
-113 l-105 0 0 333 c0 182 -2 460 -3 617 -2 157 -1 293 1 303 4 17 16 19 146
15 120 -2 146 -6 176 -23z m610 -20 l0 -45 -125 0 -125 0 0 -250 0 -250 120 0
120 0 0 -40 0 -40 -120 0 -120 0 0 -255 0 -255 125 0 125 0 0 -45 0 -45 -175
0 -175 0 0 635 0 635 175 0 175 0 0 -45z m424 34 c52 -14 92 -55 106 -110 17
-61 17 -469 0 -529 -8 -29 -26 -58 -51 -82 l-40 -38 64 -250 63 -250 -53 0
c-29 0 -53 3 -54 8 0 4 -26 113 -57 242 l-57 235 -53 3 -52 3 0 -245 0 -246
-45 0 -44 0 -3 508 c-2 279 -2 564 0 635 l3 127 117 0 c64 0 135 -5 156 -11z"/>
<path d="M1133 4285 c-91 -25 -167 -85 -218 -170 -27 -46 -365 -1248 -440
-1569 -26 -110 -28 -123 -16 -179 7 -34 22 -79 33 -101 31 -60 114 -143 174
-172 46 -23 66 -26 145 -26 115 0 170 25 256 115 68 71 102 133 238 437 47
107 93 204 100 216 12 19 25 21 154 27 127 5 144 7 189 32 69 37 138 110 175
186 22 43 42 69 62 79 26 13 102 15 520 15 363 0 497 -3 517 -12 19 -8 39 -35
63 -83 43 -85 103 -149 176 -185 47 -24 67 -28 190 -32 127 -5 140 -8 152 -27
7 -12 64 -133 126 -271 121 -269 174 -359 245 -418 74 -62 123 -78 228 -78 78
0 97 3 144 27 69 35 148 118 181 190 49 107 31 201 -177 949 -161 581 -241
849 -265 891 -31 52 -90 106 -157 141 -48 26 -62 28 -158 28 l-106 0 -112 -57
-112 -58 -934 0 -934 0 -117 57 c-105 51 -122 57 -193 60 -47 2 -97 -3 -129
-12z m2675 -164 c44 -23 69 -104 48 -154 -27 -66 -102 -100 -171 -77 -83 27
-108 157 -41 219 42 39 104 44 164 12z m-2407 -38 c10 -11 15 -53 18 -130 l3
-113 109 0 c140 0 149 -7 149 -114 0 -41 -4 -86 -10 -100 -9 -26 -10 -26 -129
-26 l-119 0 -4 -115 c-4 -148 -6 -150 -128 -150 -49 0 -93 5 -99 10 -12 13
-20 80 -20 178 l-1 77 -120 0 c-105 0 -122 2 -128 18 -13 31 -8 190 6 204 9 9
50 14 126 16 l113 4 7 121 c4 79 10 124 19 129 6 4 53 8 103 8 73 0 94 -3 105
-17z m1343 -153 c25 -9 26 -13 26 -92 0 -46 -5 -90 -10 -98 -13 -21 -458 -20
-471 1 -13 21 -11 173 3 187 15 15 414 17 452 2z m837 -15 c61 -32 86 -112 54
-179 -41 -85 -187 -89 -230 -6 -20 38 -19 110 1 139 40 56 116 76 175 46z
m461 -34 c32 -34 38 -47 38 -83 0 -78 -50 -127 -128 -128 -105 -1 -159 85
-118 185 21 50 70 77 126 72 36 -4 51 -13 82 -46z m-236 -190 c33 -20 64 -75
64 -113 0 -64 -69 -128 -140 -128 -82 0 -143 84 -121 167 10 38 41 75 71 86
33 12 96 6 126 -12z m-1071 -110 l30 -6 3 -103 3 -102 -240 0 c-273 0 -251 -8
-251 98 0 91 7 110 39 115 43 7 383 5 416 -2z m-1010 -266 c52 -30 95 -107 95
-169 0 -55 -34 -119 -83 -158 -38 -30 -47 -33 -113 -33 -66 0 -76 3 -111 31
-78 63 -105 133 -84 213 17 63 44 95 104 126 63 32 126 29 192 -10z m1750 10
c68 -29 107 -91 108 -175 1 -109 -73 -190 -182 -198 -89 -6 -153 34 -201 127
-27 53 -9 150 39 205 51 58 152 76 236 41z"/>
<path d="M3701 4046 c-20 -24 -10 -70 16 -74 50 -7 84 43 51 76 -16 16 -53 15
-67 -2z"/>
<path d="M1259 3900 c-3 -74 -8 -123 -16 -131 -7 -7 -47 -13 -95 -14 -158 -3
-148 -1 -148 -39 l0 -34 119 -4 c66 -1 123 -7 128 -11 4 -5 10 -62 11 -128 l4
-119 33 0 33 0 6 83 c4 45 7 102 9 127 l2 45 128 3 128 3 -3 37 -3 37 -127 3
-128 3 0 68 c0 37 -3 96 -6 130 -7 61 -7 61 -39 61 l-33 0 -3 -120z"/>
<path d="M2365 3847 c-39 -29 -7 -37 156 -37 137 0 160 2 166 16 3 9 0 20 -8
25 -24 15 -292 11 -314 -4z"/>
<path d="M3487 3832 c-22 -24 -21 -45 1 -65 25 -23 48 -21 66 5 20 29 20 34
-4 58 -25 25 -42 25 -63 2z"/>
<path d="M3919 3829 c-33 -33 -7 -86 36 -73 49 15 60 52 23 78 -29 21 -34 20
-59 -5z"/>
<path d="M3694 3606 c-13 -55 21 -88 62 -61 43 28 21 84 -33 85 -16 0 -25 -7
-29 -24z"/>
<path d="M2360 3485 c-27 -32 4 -40 170 -43 l160 -3 0 30 0 31 -159 0 c-131 0
-161 -3 -171 -15z"/>
<path d="M1583 3258 c-63 -17 -99 -98 -68 -157 18 -36 69 -71 103 -71 32 0 76
25 101 56 64 81 -30 200 -136 172z"/>
<path d="M3353 3259 c-44 -13 -83 -66 -83 -114 0 -30 7 -45 39 -76 43 -43 80
-50 131 -24 42 22 60 53 60 106 0 41 -4 51 -35 78 -20 17 -40 31 -45 31 -4 0
-14 2 -22 4 -7 2 -27 0 -45 -5z"/>
<path d="M1920 1582 c-14 -4 -33 -23 -43 -42 -16 -32 -17 -73 -15 -527 l3
-491 24 -26 c21 -22 33 -26 83 -26 67 0 93 18 103 72 3 18 5 250 3 515 -3 478
-3 483 -24 504 -23 23 -91 33 -134 21z"/>
<path d="M2451 1024 l-1 -546 81 4 c73 3 83 6 104 30 21 25 23 37 30 256 8
265 -1 715 -16 753 -14 36 -48 49 -129 49 l-68 0 -1 -546z"/>
<path d="M3530 1270 l0 -300 65 0 c75 0 108 13 124 47 16 34 25 258 16 387 -7
102 -9 112 -35 138 -26 25 -35 28 -99 28 l-71 0 0 -300z"/>
</g>
</svg>
