<?xml version="1.0" encoding="UTF-8" standalone="no"?> <svg xmlns="http://www.w3.org/2000/svg" xmlns:xlink="http://www.w3.org/1999/xlink" xmlns:serif="http://www.serif.com/" width="100%" height="100%" viewBox="0 0 540 540" version="1.1" xml:space="preserve" style="fill-rule:evenodd;clip-rule:evenodd;stroke-linejoin:round;stroke-miterlimit:2;"><path d="M259.5,23.5c-23.862,-0.203 -71.42,18.094 -99.5,41.5c-26.92,22.439 -53.667,53.167 -74.5,84c-20.833,30.833 -40,74.125 -50,101c-7.071,19.003 -11.276,39.739 -10.5,60c0.948,24.763 8.103,60.612 29.5,83.5c21.027,22.492 53.438,46.415 84,62.5c31.667,16.667 71.412,30.667 106.5,39c34.207,8.124 74.167,11 105,8.5c27.847,-2.258 54.983,-11.061 80,-23.5c25.139,-12.5 49.412,-34.205 64.5,-60.5c16.773,-29.232 22.125,-76.167 12.921,-109.5c-8.417,-30.482 -20.921,-61.667 -33.421,-90c-12.35,-27.993 -26.34,-55.169 -43.5,-80.5c-17.5,-25.833 -40.5,-56.167 -60.5,-74.5c-17.068,-15.646 -41.833,-27.833 -61,-34.5c-17.387,-6.048 -31.092,-6.843 -49.5,-7Z" style="fill:#e9eff3;"></path><path d="M69.727,377.434c-0.98,0 -1.75,-0.303 -2.31,-0.91c-0.56,-0.607 -0.84,-1.353 -0.84,-2.24c0,-0.373 0.117,-0.84 0.35,-1.4l17.85,-42.14c0.327,-0.747 0.829,-1.412 1.505,-1.995c0.677,-0.583 1.529,-0.875 2.555,-0.875l0.7,0c1.074,0 1.937,0.292 2.59,0.875c0.654,0.583 1.144,1.248 1.47,1.995l17.85,42.14c0.234,0.56 0.35,1.027 0.35,1.4c0,0.887 -0.28,1.633 -0.84,2.24c-0.56,0.607 -1.33,0.91 -2.31,0.91c-1.446,0 -2.45,-0.653 -3.01,-1.96l-4.55,-10.92l-23.8,0l-4.55,10.92c-0.56,1.307 -1.563,1.96 -3.01,1.96Zm10.01,-18.69l18.9,0l-9.45,-22.75l-9.45,22.75Z" style="fill:#44677b;fill-rule:nonzero;stroke:#44677b;stroke-width:0.5px;"></path><path d="M154.637,377.434c-0.886,0 -1.633,-0.303 -2.24,-0.91c-0.606,-0.607 -0.91,-1.353 -0.91,-2.24l0,-42.84c0,-0.887 0.304,-1.645 0.91,-2.275c0.607,-0.63 1.354,-0.945 2.24,-0.945l15.96,0c3.547,0 6.522,0.455 8.925,1.365c2.404,0.91 4.317,2.123 5.74,3.64c1.424,1.517 2.45,3.185 3.08,5.005c0.63,1.82 0.945,3.663 0.945,5.53c0,1.867 -0.315,3.71 -0.945,5.53c-0.63,1.82 -1.656,3.488 -3.08,5.005c-1.423,1.517 -3.336,2.73 -5.74,3.64c-2.403,0.91 -5.378,1.365 -8.925,1.365l-12.74,0l0,14.98c0,0.887 -0.315,1.633 -0.945,2.24c-0.63,0.607 -1.388,0.91 -2.275,0.91Zm3.22,-24.15l12.11,0c3.5,0 6.184,-0.478 8.05,-1.435c1.867,-0.957 3.15,-2.17 3.85,-3.64c0.7,-1.47 1.05,-2.952 1.05,-4.445c0,-1.54 -0.35,-3.033 -1.05,-4.48c-0.7,-1.447 -1.983,-2.648 -3.85,-3.605c-1.866,-0.957 -4.55,-1.435 -8.05,-1.435l-12.11,0l0,19.04Z" style="fill:#44677b;fill-rule:nonzero;stroke:#44677b;stroke-width:0.5px;"></path><path d="M231.077,377.084c-0.886,0 -1.633,-0.303 -2.24,-0.91c-0.606,-0.607 -0.91,-1.353 -0.91,-2.24l0,-42.49c0,-0.887 0.304,-1.645 0.91,-2.275c0.607,-0.63 1.354,-0.945 2.24,-0.945l28.07,0c0.84,0 1.552,0.292 2.135,0.875c0.584,0.583 0.875,1.295 0.875,2.135c0,0.84 -0.291,1.54 -0.875,2.1c-0.583,0.56 -1.295,0.84 -2.135,0.84l-24.85,0l0,15.47l22.33,0c0.84,0 1.552,0.292 2.135,0.875c0.584,0.583 0.875,1.295 0.875,2.135c0,0.84 -0.291,1.54 -0.875,2.1c-0.583,0.56 -1.295,0.84 -2.135,0.84l-22.33,0l0,15.54l24.85,0c0.84,0 1.552,0.292 2.135,0.875c0.584,0.583 0.875,1.295 0.875,2.135c0,0.84 -0.291,1.54 -0.875,2.1c-0.583,0.56 -1.295,0.84 -2.135,0.84l-28.07,0Z" style="fill:#44677b;fill-rule:nonzero;stroke:#44677b;stroke-width:0.5px;"></path><path d="M305.137,377.434c-0.886,0 -1.633,-0.303 -2.24,-0.91c-0.606,-0.607 -0.91,-1.353 -0.91,-2.24l0,-42.84c0,-0.887 0.304,-1.645 0.91,-2.275c0.607,-0.63 1.354,-0.945 2.24,-0.945l16.31,0c4.434,0 8.05,0.63 10.85,1.89c2.8,1.26 4.865,2.952 6.195,5.075c1.33,2.123 1.995,4.538 1.995,7.245c0,2.707 -0.758,5.227 -2.275,7.56c-1.516,2.333 -3.815,4.037 -6.895,5.11c1.96,0.513 3.524,1.435 4.69,2.765c1.167,1.33 2.042,2.835 2.625,4.515c0.584,1.68 0.969,3.302 1.155,4.865c0.187,1.563 0.28,2.835 0.28,3.815l0,3.22c0,0.887 -0.303,1.633 -0.91,2.24c-0.606,0.607 -1.353,0.91 -2.24,0.91c-0.98,0 -1.761,-0.292 -2.345,-0.875c-0.583,-0.583 -0.875,-1.342 -0.875,-2.275l0,-2.1c0,-1.167 -0.081,-2.543 -0.245,-4.13c-0.163,-1.587 -0.571,-3.15 -1.225,-4.69c-0.653,-1.54 -1.715,-2.812 -3.185,-3.815c-1.47,-1.003 -3.535,-1.505 -6.195,-1.505l-14.49,0l0,16.24c0,0.887 -0.315,1.633 -0.945,2.24c-0.63,0.607 -1.388,0.91 -2.275,0.91Zm3.22,-25.41l12.67,0c3.92,0 7.082,-0.77 9.485,-2.31c2.404,-1.54 3.605,-3.803 3.605,-6.79c0,-1.727 -0.396,-3.243 -1.19,-4.55c-0.793,-1.307 -2.17,-2.322 -4.13,-3.045c-1.96,-0.723 -4.666,-1.085 -8.12,-1.085l-12.32,0l0,17.78Z" style="fill:#44677b;fill-rule:nonzero;stroke:#44677b;stroke-width:0.5px;"></path><path d="M395.717,377.434c-0.886,0 -1.633,-0.303 -2.24,-0.91c-0.606,-0.607 -0.91,-1.353 -0.91,-2.24l0,-40.11l-14.28,0c-0.84,0 -1.54,-0.28 -2.1,-0.84c-0.56,-0.56 -0.84,-1.26 -0.84,-2.1c0,-0.84 0.28,-1.552 0.84,-2.135c0.56,-0.583 1.26,-0.875 2.1,-0.875l34.86,0c0.84,0 1.552,0.292 2.135,0.875c0.584,0.583 0.875,1.295 0.875,2.135c0,0.84 -0.291,1.54 -0.875,2.1c-0.583,0.56 -1.295,0.84 -2.135,0.84l-14.21,0l0,40.11c0,0.887 -0.315,1.633 -0.945,2.24c-0.63,0.607 -1.388,0.91 -2.275,0.91Z" style="fill:#44677b;fill-rule:nonzero;stroke:#44677b;stroke-width:0.5px;"></path><path d="M473.207,377.784c-4.993,0 -9.31,-1.073 -12.95,-3.22c-3.64,-2.147 -6.463,-5.11 -8.47,-8.89c-2.006,-3.78 -3.056,-8.12 -3.15,-13.02c0.094,-4.9 1.144,-9.24 3.15,-13.02c2.007,-3.78 4.83,-6.743 8.47,-8.89c3.64,-2.147 7.957,-3.22 12.95,-3.22c4.994,0 9.31,1.073 12.95,3.22c3.64,2.147 6.464,5.11 8.47,8.89c2.007,3.78 3.057,8.12 3.15,13.02c-0.093,4.9 -1.143,9.24 -3.15,13.02c-2.006,3.78 -4.83,6.743 -8.47,8.89c-3.64,2.147 -7.956,3.22 -12.95,3.22Zm0,-5.95c3.874,0 7.164,-0.852 9.87,-2.555c2.707,-1.703 4.772,-4.002 6.195,-6.895c1.424,-2.893 2.135,-6.137 2.135,-9.73c0,-3.593 -0.711,-6.837 -2.135,-9.73c-1.423,-2.893 -3.488,-5.192 -6.195,-6.895c-2.706,-1.703 -5.996,-2.555 -9.87,-2.555c-3.873,0 -7.163,0.852 -9.87,2.555c-2.706,1.703 -4.771,4.002 -6.195,6.895c-1.423,2.893 -2.135,6.137 -2.135,9.73c0,3.593 0.712,6.837 2.135,9.73c1.424,2.893 3.489,5.192 6.195,6.895c2.707,1.703 5.997,2.555 9.87,2.555Z" style="fill:#44677b;fill-rule:nonzero;stroke:#44677b;stroke-width:0.5px;"></path><path d="M152.086,432.47c-2.452,0 -4.65,-0.236 -6.594,-0.71c-1.945,-0.474 -3.637,-1.022 -5.075,-1.643c-0.359,-0.163 -0.678,-0.433 -0.956,-0.809c-0.277,-0.376 -0.416,-0.776 -0.416,-1.201c-0,-0.555 0.179,-1.038 0.539,-1.446c0.359,-0.409 0.85,-0.613 1.471,-0.613c0.327,0 0.637,0.065 0.931,0.196c1.111,0.49 2.476,0.948 4.094,1.373c1.618,0.425 3.473,0.637 5.564,0.637c1.635,0 3.097,-0.171 4.388,-0.515c1.291,-0.343 2.313,-0.931 3.064,-1.765c0.752,-0.833 1.128,-1.952 1.128,-3.358c0,-1.046 -0.376,-1.887 -1.128,-2.525c-0.751,-0.637 -1.748,-1.168 -2.99,-1.593c-1.242,-0.425 -2.607,-0.817 -4.094,-1.177c-1.487,-0.359 -2.966,-0.76 -4.437,-1.201c-1.471,-0.441 -2.827,-1.021 -4.069,-1.74c-1.242,-0.719 -2.239,-1.643 -2.991,-2.77c-0.751,-1.128 -1.127,-2.558 -1.127,-4.29c-0,-1.83 0.482,-3.505 1.446,-5.025c0.964,-1.52 2.394,-2.738 4.29,-3.653c1.896,-0.915 4.216,-1.372 6.962,-1.372c1.928,-0 3.709,0.147 5.344,0.441c1.634,0.294 3.105,0.686 4.412,1.176c0.359,0.131 0.678,0.344 0.956,0.638c0.278,0.294 0.417,0.735 0.417,1.323c-0,0.491 -0.172,0.956 -0.515,1.398c-0.343,0.441 -0.825,0.662 -1.446,0.662c-0.131,-0 -0.262,-0.025 -0.393,-0.074c-0.13,-0.049 -0.261,-0.09 -0.392,-0.123c-1.111,-0.392 -2.329,-0.71 -3.652,-0.956c-1.324,-0.245 -2.738,-0.367 -4.241,-0.367c-2.484,-0 -4.56,0.474 -6.226,1.421c-1.667,0.948 -2.501,2.337 -2.501,4.168c0,1.209 0.376,2.173 1.128,2.892c0.752,0.719 1.748,1.291 2.99,1.716c1.242,0.425 2.599,0.809 4.07,1.152c1.47,0.344 2.941,0.728 4.412,1.152c1.471,0.425 2.827,0.989 4.069,1.692c1.242,0.703 2.239,1.634 2.991,2.794c0.752,1.161 1.127,2.672 1.127,4.535c0,1.831 -0.514,3.473 -1.544,4.927c-1.029,1.455 -2.484,2.591 -4.363,3.408c-1.88,0.817 -4.094,1.225 -6.643,1.225Z" style="fill:#44677b;fill-rule:nonzero;stroke:#44677b;stroke-width:0.5px;"></path><path d="M200.426,432.225c-0.621,0 -1.144,-0.212 -1.569,-0.637c-0.425,-0.425 -0.637,-0.948 -0.637,-1.569l-0,-28.092l-10.002,0c-0.588,0 -1.078,-0.196 -1.471,-0.588c-0.392,-0.393 -0.588,-0.883 -0.588,-1.471c0,-0.588 0.196,-1.087 0.588,-1.495c0.393,-0.409 0.883,-0.613 1.471,-0.613l24.415,-0c0.589,-0 1.087,0.204 1.496,0.613c0.408,0.408 0.612,0.907 0.612,1.495c0,0.588 -0.204,1.078 -0.612,1.471c-0.409,0.392 -0.907,0.588 -1.496,0.588l-9.952,0l-0,28.092c-0,0.621 -0.221,1.144 -0.662,1.569c-0.441,0.425 -0.972,0.637 -1.593,0.637Z" style="fill:#44677b;fill-rule:nonzero;stroke:#44677b;stroke-width:0.5px;"></path><path d="M242.932,432.225c-0.621,0 -1.144,-0.212 -1.569,-0.637c-0.425,-0.425 -0.638,-0.948 -0.638,-1.569l0,-30.004c0,-0.621 0.213,-1.152 0.638,-1.593c0.425,-0.442 0.948,-0.662 1.569,-0.662l11.423,-0c3.105,-0 5.638,0.441 7.599,1.323c1.961,0.883 3.407,2.068 4.339,3.555c0.931,1.487 1.397,3.178 1.397,5.074c-0,1.896 -0.531,3.661 -1.593,5.295c-1.063,1.634 -2.672,2.827 -4.829,3.579c1.372,0.359 2.467,1.005 3.284,1.936c0.817,0.932 1.43,1.986 1.839,3.163c0.408,1.176 0.678,2.312 0.809,3.407c0.13,1.095 0.196,1.986 0.196,2.672l-0,2.255c-0,0.621 -0.213,1.144 -0.638,1.569c-0.424,0.425 -0.947,0.637 -1.568,0.637c-0.687,0 -1.234,-0.204 -1.643,-0.612c-0.408,-0.409 -0.613,-0.94 -0.613,-1.594l0,-1.471c0,-0.817 -0.057,-1.781 -0.171,-2.892c-0.115,-1.111 -0.401,-2.206 -0.858,-3.285c-0.458,-1.079 -1.201,-1.969 -2.231,-2.672c-1.029,-0.703 -2.476,-1.054 -4.339,-1.054l-10.148,0l-0,11.374c-0,0.621 -0.221,1.144 -0.662,1.569c-0.441,0.425 -0.972,0.637 -1.593,0.637Zm2.255,-17.796l8.874,-0c2.745,-0 4.959,-0.54 6.643,-1.618c1.683,-1.079 2.525,-2.664 2.525,-4.756c-0,-1.209 -0.278,-2.271 -0.834,-3.186c-0.555,-0.916 -1.52,-1.626 -2.892,-2.133c-1.373,-0.507 -3.269,-0.76 -5.687,-0.76l-8.629,0l-0,12.453Z" style="fill:#44677b;fill-rule:nonzero;stroke:#44677b;stroke-width:0.5px;"></path><path d="M298.43,431.98c-0.621,0 -1.144,-0.212 -1.569,-0.637c-0.425,-0.425 -0.638,-0.948 -0.638,-1.569l0,-29.759c0,-0.621 0.213,-1.152 0.638,-1.593c0.425,-0.442 0.948,-0.662 1.569,-0.662l19.659,-0c0.588,-0 1.087,0.204 1.495,0.613c0.409,0.408 0.613,0.907 0.613,1.495c0,0.588 -0.204,1.078 -0.613,1.471c-0.408,0.392 -0.907,0.588 -1.495,0.588l-17.404,0l-0,10.835l15.639,-0c0.589,-0 1.087,0.204 1.496,0.613c0.408,0.408 0.612,0.907 0.612,1.495c0,0.588 -0.204,1.079 -0.612,1.471c-0.409,0.392 -0.907,0.588 -1.496,0.588l-15.639,0l-0,10.884l17.404,-0c0.588,-0 1.087,0.204 1.495,0.613c0.409,0.408 0.613,0.907 0.613,1.495c0,0.588 -0.204,1.079 -0.613,1.471c-0.408,0.392 -0.907,0.588 -1.495,0.588l-19.659,0Z" style="fill:#44677b;fill-rule:nonzero;stroke:#44677b;stroke-width:0.5px;"></path><path d="M350.3,432.225c-0.621,0 -1.144,-0.212 -1.569,-0.637c-0.425,-0.425 -0.638,-0.948 -0.638,-1.569l0,-30.004c0,-0.621 0.213,-1.152 0.638,-1.593c0.425,-0.442 0.948,-0.662 1.569,-0.662l19.071,-0c0.588,-0 1.087,0.204 1.495,0.613c0.409,0.408 0.613,0.907 0.613,1.495c-0,0.588 -0.204,1.078 -0.613,1.471c-0.408,0.392 -0.907,0.588 -1.495,0.588l-16.816,0l-0,10.835l15.1,-0c0.588,-0 1.087,0.204 1.495,0.613c0.409,0.408 0.613,0.907 0.613,1.495c0,0.588 -0.204,1.079 -0.613,1.471c-0.408,0.392 -0.907,0.588 -1.495,0.588l-15.1,0l-0,13.09c-0,0.621 -0.221,1.144 -0.662,1.569c-0.441,0.425 -0.972,0.637 -1.593,0.637Z" style="fill:#44677b;fill-rule:nonzero;stroke:#44677b;stroke-width:0.5px;"></path><path d="M395.845,432.225c-0.686,0 -1.226,-0.212 -1.618,-0.637c-0.392,-0.425 -0.588,-0.948 -0.588,-1.569c-0,-0.261 0.082,-0.588 0.245,-0.98l12.502,-29.514c0.229,-0.523 0.58,-0.989 1.054,-1.398c0.474,-0.408 1.07,-0.612 1.789,-0.612l0.491,-0c0.751,-0 1.356,0.204 1.814,0.612c0.457,0.409 0.8,0.875 1.029,1.398l12.502,29.514c0.163,0.392 0.245,0.719 0.245,0.98c0,0.621 -0.196,1.144 -0.588,1.569c-0.393,0.425 -0.932,0.637 -1.618,0.637c-1.013,0 -1.716,-0.457 -2.108,-1.372l-3.187,-7.649l-16.669,0l-3.187,7.649c-0.392,0.915 -1.095,1.372 -2.108,1.372Zm7.011,-13.09l13.237,0l-6.619,-15.933l-6.618,15.933Z" style="fill:#44677b;fill-rule:nonzero;stroke:#44677b;stroke-width:0.5px;"></path><g><path d="M339.25,204.991c-4.085,20.121 -15.076,37.742 -30.384,50.273c-15.067,12.334 -34.316,19.736 -55.279,19.736c-48.245,0 -87.413,-39.207 -87.413,-87.5c-0,-41.016 28.254,-75.479 66.326,-84.933" style="fill:none;stroke:#517993;stroke-width:4px;stroke-linecap:round;stroke-miterlimit:1.5;"></path><path d="M335.75,149.711c25.51,7.107 44.25,30.527 44.25,58.289c0,33.391 -27.109,60.5 -60.5,60.5c-24.575,0 -45.748,-14.684 -55.215,-35.75" style="fill:none;stroke:#517993;stroke-width:4px;stroke-linecap:round;stroke-miterlimit:1.5;"></path><circle cx="315.25" cy="148.75" r="13.75" style="fill:none;stroke:#517993;stroke-width:4px;stroke-linecap:round;stroke-miterlimit:1.5;"></circle><circle cx="266.5" cy="103.5" r="26.5" style="fill:none;stroke:#517993;stroke-width:4px;stroke-linecap:round;stroke-miterlimit:1.5;"></circle></g></svg> 